<svg xmlns="http://www.w3.org/2000/svg" viewBox="0 0 100 100">
  <!-- Background -->
  <rect width="100" height="100" fill="#1a1a1a"/>
  
  <!-- Stylized "B" for Balstudio in warm gold -->
  <path d="M 30 25 L 30 75 L 55 75 C 65 75 72 68 72 58 C 72 52 68 47 62 45 C 67 43 70 38 70 32 C 70 22 63 25 53 25 Z M 40 35 L 50 35 C 55 35 58 37 58 42 C 58 47 55 49 50 49 L 40 49 Z M 40 57 L 52 57 C 58 57 62 59 62 65 C 62 70 58 72 52 72 L 40 72 Z" fill="#d4af37"/>
  
  <!-- Architectural line accent -->
  <line x1="25" y1="20" x2="75" y2="20" stroke="#8b7355" stroke-width="2"/>
  <line x1="25" y1="80" x2="75" y2="80" stroke="#8b7355" stroke-width="2"/>
</svg>
